<?xml version="1.0" standalone="no"?>
<!DOCTYPE svg PUBLIC "-//W3C//DTD SVG 20010904//EN"
 "http://www.w3.org/TR/2001/REC-SVG-20010904/DTD/svg10.dtd">
<svg version="1.0" xmlns="http://www.w3.org/2000/svg"
 width="1600.000000pt" height="1600.000000pt" viewBox="0 0 1600.000000 1600.000000"
 preserveAspectRatio="xMidYMid meet">
<metadata>
Created by potrace 1.14, written by Peter Selinger 2001-2017
</metadata>
<g transform="translate(0.000000,1600.000000) scale(0.100000,-0.100000)"
fill="#000000" stroke="none">
<path d="M1139 15746 c-2 -2 -24 -7 -49 -10 -363 -48 -699 -347 -800 -709 -12
-43 -24 -88 -28 -100 -11 -34 -12 -13764 -2 -13822 15 -84 19 -100 39 -163 81
-252 272 -471 514 -591 45 -22 109 -48 142 -57 165 -45 -194 -43 7080 -41
l6870 2 100 28 c333 94 594 341 696 661 19 59 22 72 39 171 12 68 12 13715 0
13780 -15 84 -19 100 -39 161 -58 183 -173 350 -326 473 -133 107 -274 170
-455 205 -65 13 -985 15 -6926 15 -3768 1 -6853 -1 -6855 -3z m12471 -1760
c171 -41 318 -176 366 -336 4 -14 10 -32 13 -40 3 -8 7 -2524 8 -5590 2 -4639
0 -5585 -11 -5632 -21 -89 -65 -167 -136 -238 -70 -71 -136 -109 -235 -134
-53 -14 -630 -16 -5615 -16 -3906 1 -5570 4 -5605 11 -185 40 -350 207 -384
389 -15 79 -15 11130 0 11202 37 179 194 340 374 384 77 19 11148 19 11225 0z"/>
<path d="M3766 13049 c-17 -4 -41 -20 -55 -35 -24 -26 -25 -34 -27 -158 l-1
-131 -29 -3 c-103 -9 -296 -81 -317 -118 -4 -8 -15 -14 -22 -14 -8 0 -15 -3
-15 -7 0 -5 -15 -25 -34 -45 -73 -79 -112 -205 -102 -327 13 -163 94 -277 247
-346 58 -26 101 -40 154 -50 11 -2 31 -6 45 -9 14 -3 36 -7 50 -8 24 -2 25 -4
24 -77 0 -47 -5 -76 -12 -79 -9 -3 -86 11 -137 24 -5 2 -19 5 -30 8 -11 2 -32
9 -47 15 -16 6 -28 8 -28 5 0 -4 -6 -1 -14 5 -8 6 -37 14 -65 18 -50 6 -87 -5
-117 -33 -16 -14 -56 -94 -48 -94 4 0 1 -6 -5 -14 -6 -7 -13 -38 -15 -68 -5
-67 14 -111 63 -144 33 -21 134 -59 185 -68 12 -2 39 -9 61 -14 22 -6 60 -14
85 -17 90 -13 115 -17 119 -21 3 -3 5 -66 5 -142 1 -114 4 -143 19 -165 25
-38 63 -54 139 -56 91 -3 142 12 169 51 21 28 23 43 23 172 l1 141 50 3 c55 2
157 32 219 64 220 112 313 345 235 587 -19 59 -108 162 -151 177 -10 3 -18 10
-18 15 0 5 -3 8 -7 7 -5 -1 -19 4 -33 9 -59 26 -88 35 -135 44 -27 6 -63 13
-80 17 -16 3 -42 6 -56 6 -25 1 -25 3 -24 68 1 37 3 70 6 73 3 2 32 -2 65 -11
32 -9 66 -17 74 -19 8 -3 48 -14 89 -25 94 -25 122 -25 154 0 26 21 67 80 71
103 1 6 5 17 9 24 4 6 9 36 11 66 7 95 -40 156 -139 182 -16 5 -34 9 -40 11
-74 22 -131 36 -180 45 -33 6 -67 13 -75 14 -8 2 -22 4 -30 4 -12 1 -15 20
-14 108 0 60 -3 124 -6 144 -8 43 -40 78 -83 90 -39 11 -142 10 -181 -2z m-81
-783 c0 -31 -4 -52 -10 -51 -49 14 -55 19 -55 46 0 27 30 59 55 59 5 0 10 -24
10 -54z m420 -546 c11 -18 -6 -50 -35 -65 -16 -8 -30 -15 -32 -15 -3 0 -2 111
1 118 2 5 60 -28 66 -38z"/>
<path d="M6803 13025 l-33 -33 0 -931 0 -931 29 -33 29 -32 142 -3 c159 -4
189 3 219 52 18 28 20 57 24 326 4 312 5 313 58 429 41 88 114 167 188 203 64
31 155 31 197 1 63 -45 65 -62 66 -513 0 -526 -11 -500 223 -500 136 0 171 8
200 48 19 26 20 43 20 487 0 528 -3 563 -58 671 -33 66 -56 93 -130 158 -36
31 -139 75 -202 87 -99 18 -248 6 -330 -26 -77 -31 -165 -84 -205 -124 l-25
-25 -2 319 c-2 224 -6 327 -15 343 -6 12 -26 32 -44 43 -29 18 -48 20 -175 18
l-143 -1 -33 -33z"/>
<path d="M9455 12594 c-11 -2 -45 -9 -75 -15 -30 -5 -64 -14 -75 -19 -11 -5
-42 -19 -70 -31 -201 -88 -353 -276 -416 -514 -22 -85 -18 -266 9 -365 75
-274 318 -494 592 -538 25 -4 655 -7 1400 -7 1279 0 1359 1 1419 18 145 41
288 133 385 246 25 30 46 58 46 62 0 4 6 14 13 21 13 13 51 91 75 153 36 92
49 279 27 390 -38 191 -153 363 -317 476 -31 22 -68 43 -80 48 -13 5 -44 18
-68 29 -107 48 -55 46 -1490 48 -745 1 -1364 0 -1375 -2z"/>
<path d="M5429 12516 c-2 -2 -17 -7 -34 -10 -61 -11 -85 -17 -112 -28 -16 -6
-30 -12 -33 -12 -19 -4 -100 -51 -100 -58 0 -4 -5 -8 -11 -8 -21 0 -105 -98
-132 -154 -35 -71 -46 -132 -43 -226 5 -130 60 -243 146 -300 12 -8 32 -22 44
-31 34 -25 151 -69 226 -84 55 -11 101 -17 235 -30 169 -17 260 -36 281 -57
21 -21 5 -55 -34 -75 -31 -15 -63 -18 -207 -18 -171 0 -173 0 -375 50 -3 1
-37 11 -76 24 -97 30 -126 24 -179 -37 -67 -78 -83 -231 -28 -281 29 -26 69
-50 95 -56 12 -3 66 -16 118 -30 52 -13 111 -27 130 -30 19 -3 42 -7 50 -10
97 -26 464 -27 560 -1 107 29 222 90 282 150 61 60 113 157 125 231 17 115 -4
267 -45 316 -79 97 -138 138 -245 175 -61 21 -95 29 -210 48 -15 3 -72 8 -125
11 -112 7 -137 10 -252 29 -45 8 -60 18 -60 41 0 27 22 52 59 67 34 13 243 13
312 -1 30 -6 65 -13 79 -15 63 -11 136 -29 151 -37 9 -4 31 -11 49 -14 18 -3
41 -10 51 -15 14 -8 56 -8 67 1 1 1 5 2 10 4 59 16 109 110 116 217 4 52 -11
88 -49 124 -26 24 -141 65 -235 83 -30 6 -66 13 -80 16 -105 23 -239 35 -381
35 -74 0 -138 -2 -140 -4z"/>
<path d="M3859 10096 c-2 -3 -22 -7 -44 -10 -172 -21 -377 -155 -484 -316 -89
-133 -124 -246 -125 -400 -1 -181 26 -282 108 -415 112 -179 287 -299 496
-340 64 -12 341 -14 1895 -14 1001 0 1840 4 1865 9 69 13 89 18 139 37 154 58
276 156 368 296 81 124 113 227 118 383 3 105 -6 167 -41 284 -18 62 -104 199
-159 255 -48 49 -153 127 -201 150 -112 52 -111 52 -204 73 -28 7 -3724 14
-3731 8z"/>
<path d="M9329 10085 c-41 -15 -529 -287 -577 -323 -71 -52 -70 -47 -71 -422
-1 -374 0 -386 62 -436 19 -14 56 -39 83 -54 51 -28 267 -149 369 -207 160
-91 191 -94 303 -35 127 66 145 76 160 89 7 7 24 16 38 19 13 3 24 9 24 13 0
4 12 12 28 18 15 7 47 24 72 39 25 14 77 44 115 66 39 22 81 49 93 61 50 46
51 63 49 432 -2 331 -3 345 -23 372 -19 26 -119 101 -136 102 -4 1 -29 14 -56
30 -26 15 -70 40 -98 56 -27 15 -112 62 -189 106 -147 82 -187 94 -246 74z
m99 -371 c26 -15 58 -34 72 -44 14 -9 35 -21 48 -24 12 -4 20 -11 17 -16 -6
-9 -100 -65 -154 -91 -38 -19 -21 -25 -184 67 -42 23 -41 26 28 63 22 12 58
32 80 46 22 13 41 24 43 25 2 0 24 -12 50 -26z m-215 -584 c0 -55 -3 -103 -6
-107 -4 -3 -18 2 -33 12 -14 9 -51 31 -83 47 -85 47 -81 38 -81 159 l0 108
102 -59 102 -59 -1 -101z m533 5 c-5 -14 -187 -118 -193 -111 -9 9 -6 210 3
214 5 1 50 27 99 56 l90 52 3 -100 c1 -55 1 -105 -2 -111z"/>
<path d="M11209 10096 c-2 -2 -20 -6 -39 -9 -52 -7 -91 -17 -125 -32 -16 -7
-47 -20 -68 -29 -82 -34 -196 -125 -270 -217 -20 -25 -54 -81 -76 -125 -220
-440 31 -958 518 -1068 51 -12 156 -15 520 -15 251 0 479 4 506 10 188 34 345
129 466 279 20 25 39 52 43 60 3 8 16 31 27 50 27 43 65 150 75 210 10 56 11
209 1 274 -21 134 -103 292 -202 391 -89 89 -239 177 -340 200 -16 4 -39 10
-50 13 -22 7 -979 15 -986 8z"/>
<path d="M3746 7983 c-76 -16 -176 -55 -218 -84 -14 -11 -29 -19 -34 -19 -11
0 -94 -69 -137 -115 -46 -48 -118 -154 -142 -210 -32 -74 -62 -206 -64 -283
-3 -132 36 -286 100 -398 110 -190 317 -332 533 -364 80 -11 2665 -12 2731 0
112 20 121 23 220 72 209 104 351 288 400 523 13 60 15 202 4 265 -25 145 -92
283 -191 390 -105 115 -272 205 -423 229 -36 6 -594 10 -1385 9 -1132 0 -1335
-2 -1394 -15z"/>
<path d="M8175 7985 c-67 -12 -191 -60 -245 -93 -184 -115 -303 -291 -349
-517 -14 -69 -7 -237 13 -311 27 -102 85 -218 143 -284 48 -55 60 -67 113
-111 92 -76 200 -128 320 -153 97 -21 1705 -21 1801 0 281 60 498 267 575 549
27 99 26 275 -3 380 -79 284 -306 490 -598 545 -82 15 -1685 11 -1770 -5z"/>
</g>
</svg>
